<?xml version="1.0" ?><svg viewBox="0 0 23.5 16.39" xmlns="http://www.w3.org/2000/svg"><title/><g data-name="Camada 2" id="Camada_2"><g data-name="Camada 1" id="Camada_1-2"><path d="M23.49,15.78,22.3,10.65a.5.5,0,0,0-.49-.39H19.65l-1.1-4.74a.5.5,0,0,0-.49-.39H15.9L14.8.39A.5.5,0,0,0,14.32,0H9.19A.5.5,0,0,0,8.7.39L7.6,5.13H5.44a.5.5,0,0,0-.49.39l-1.1,4.74H1.69a.5.5,0,0,0-.49.39L0,15.78a.5.5,0,0,0,.49.61H23a.5.5,0,0,0,.49-.61Zm-4.87-5.52H12.38l1-4.13h4.33ZM15.5,13.67l-.56-2.41h1.11ZM11.75,8.54l-.56-2.41h1.11ZM9.58,1h4.33l1,4.13H8.63ZM5.83,6.13h4.33l1,4.13H4.88ZM8,13.67l-.56-2.41H8.56ZM1.13,15.39l1-4.13H6.42l1,4.13Zm7.5,0,1-4.13h4.33l1,4.13Zm7.5,0,1-4.13h4.33l1,4.13Z"/></g></g></svg>